<svg xmlns="http://www.w3.org/2000/svg" width="124.204" height="127.75" viewBox="0 0 124.204 127.75">
  <path id="blockchain_1_" data-name="blockchain (1)" d="M126.064,29.564c-.009-.054-.007-.111-.021-.164a1.75,1.75,0,0,0-.171-.417,1.363,1.363,0,0,0-.093-.123,1.737,1.737,0,0,0-.182-.238c-.041-.042-.093-.071-.138-.109a1.722,1.722,0,0,0-.214-.168l-.013-.005-.011-.008L110.6,19.955a1.751,1.751,0,0,0-1.74,0L94.231,28.331l-.011.008-.013,0a1.725,1.725,0,0,0-.215.169,1.255,1.255,0,0,0-.137.108,1.736,1.736,0,0,0-.184.241c-.029.042-.066.077-.091.121a1.753,1.753,0,0,0-.171.417c-.014.051-.012.106-.021.158a1.718,1.718,0,0,0-.038.291v3.565L80.339,25.266A1.713,1.713,0,0,0,80.375,25V10.374a1.72,1.72,0,0,0-.038-.286c-.009-.054-.007-.111-.021-.164a1.749,1.749,0,0,0-.171-.416,1.768,1.768,0,0,0-.113-.15,1.732,1.732,0,0,0-.161-.211,1.788,1.788,0,0,0-.166-.13,1.719,1.719,0,0,0-.188-.147h-.01L79.5,8.855,64.87.479a1.751,1.751,0,0,0-1.74,0L48.5,8.855l-.012.009h-.01a1.718,1.718,0,0,0-.189.148,1.782,1.782,0,0,0-.165.129,1.736,1.736,0,0,0-.163.214,1.776,1.776,0,0,0-.111.147,1.749,1.749,0,0,0-.171.417c-.014.051-.012.106-.021.158a1.719,1.719,0,0,0-.038.291V25a1.713,1.713,0,0,0,.036.267L34.648,33.414V29.85a1.719,1.719,0,0,0-.038-.286c-.009-.054-.007-.111-.021-.164a1.749,1.749,0,0,0-.171-.417,1.368,1.368,0,0,0-.093-.123,1.737,1.737,0,0,0-.182-.238c-.041-.042-.093-.071-.138-.109a1.721,1.721,0,0,0-.214-.168l-.013-.005-.011-.008L19.144,19.955a1.751,1.751,0,0,0-1.74,0L2.778,28.331l-.011.008-.013,0a1.725,1.725,0,0,0-.215.169,1.254,1.254,0,0,0-.137.108,1.736,1.736,0,0,0-.184.241c-.029.042-.066.077-.091.121a1.753,1.753,0,0,0-.171.417c-.014.051-.012.106-.021.158a1.719,1.719,0,0,0-.038.291V44.475a1.75,1.75,0,0,0,.911,1.536L16.523,53.5V73.538L2.778,81.41l-.011.008-.013,0a1.725,1.725,0,0,0-.215.169A1.256,1.256,0,0,0,2.4,81.7a1.736,1.736,0,0,0-.184.241c-.029.042-.066.077-.091.121a1.753,1.753,0,0,0-.171.417c-.014.051-.012.106-.021.158a1.719,1.719,0,0,0-.038.291V97.554A1.75,1.75,0,0,0,2.81,99.09l14.625,7.983a1.723,1.723,0,0,0,.255.1,1.477,1.477,0,0,0,.139.054,1.692,1.692,0,0,0,.889,0c.048-.013.092-.038.139-.054a1.723,1.723,0,0,0,.255-.1l12.418-6.779,16.1,10.719v7.253a1.75,1.75,0,0,0,.911,1.536l14.625,7.983a1.724,1.724,0,0,0,.255.1,1.48,1.48,0,0,0,.139.054,1.692,1.692,0,0,0,.889,0c.048-.013.092-.038.139-.054a1.723,1.723,0,0,0,.255-.1L79.464,119.8a1.75,1.75,0,0,0,.911-1.536v-7.253l16.1-10.719,12.418,6.779a1.724,1.724,0,0,0,.255.1,1.48,1.48,0,0,0,.139.054,1.692,1.692,0,0,0,.889,0c.048-.013.092-.038.139-.054a1.724,1.724,0,0,0,.255-.1l14.62-7.981a1.75,1.75,0,0,0,.911-1.536V82.929a1.717,1.717,0,0,0-.038-.286c-.009-.054-.007-.111-.021-.164a1.749,1.749,0,0,0-.171-.417,1.371,1.371,0,0,0-.093-.123,1.738,1.738,0,0,0-.182-.238c-.041-.042-.093-.071-.138-.109a1.721,1.721,0,0,0-.214-.168l-.013,0-.011-.008-13.745-7.872V53.5l13.714-7.486a1.75,1.75,0,0,0,.911-1.536V29.85a1.719,1.719,0,0,0-.036-.286ZM74.592,103.849,64,109.631l-10.592-5.782-.448-.245L64,97.282,75.04,103.6ZM31.148,43.437,20.023,49.509V38.872L31.148,32.8ZM18.273,76.569l11.04,6.322-.448.245L18.273,88.918,7.681,83.136l-.448-.245Zm14.478,4.258-12.728-7.29V53.5l11.594-6.329L47.625,57.587V70.355ZM51.125,23.961V13.324L62.25,19.4V30.034Zm25.75,0L65.75,30.034V19.4l11.125-6.074ZM64,50.278,75.04,56.6l-.448.245L64,62.627,53.408,56.845,52.96,56.6ZM51.125,59.587,62.25,65.66V76.3L51.125,70.225ZM65.75,65.66l11.125-6.073V70.225L65.75,76.3Zm14.625-8.073L96.383,47.168,107.977,53.5V73.538l-12.728,7.29L80.375,70.355Zm27.6-18.715V49.509L96.852,43.437V32.8ZM96.852,96.516V85.878l11.125,6.073v10.637Zm23.467-13.38-10.592,5.782L99.134,83.136l-.448-.245,11.04-6.322,11.04,6.322ZM109.727,23.49l11.04,6.322-.448.245-10.592,5.782L99.134,30.057l-.448-.245ZM93.413,44.924,78.567,54.587,65.75,47.247V34.022l11.74-6.41,15.861,9.932v6.93a1.746,1.746,0,0,0,.062.45ZM64,4.015l11.039,6.323L64.484,16.1,64,16.364l-.484-.264L52.961,10.337Zm-13.49,23.6,11.74,6.41V47.247l-12.817,7.34L34.587,44.924a1.746,1.746,0,0,0,.061-.45v-6.93ZM18.273,23.49l11.04,6.322-.448.245L18.273,35.839,7.681,30.057l-.448-.245ZM5.4,32.8l11.125,6.073V49.509L5.4,43.437Zm0,53.079,11.125,6.073v10.637L5.4,96.516Zm14.625,6.073L31.15,85.879V96.516l-11.125,6.072ZM34.551,98.1a1.733,1.733,0,0,0,.1-.547V83.773L49.492,73.321,62.25,80.285V94.251L48.5,102.123l-.011.008-.013,0a1.725,1.725,0,0,0-.215.169,1.257,1.257,0,0,0-.137.108,1.735,1.735,0,0,0-.184.241c-.029.042-.066.077-.091.121a1.753,1.753,0,0,0-.171.417c-.014.051-.012.106-.021.158a1.72,1.72,0,0,0-.038.291v3.166Zm16.574,11.967V106.59l11.125,6.073V123.3l-11.125-6.072ZM65.75,123.3V112.664l11.125-6.073v10.638Zm14.625-19.659a1.72,1.72,0,0,0-.038-.286c-.009-.054-.007-.111-.021-.164a1.749,1.749,0,0,0-.171-.417,1.368,1.368,0,0,0-.093-.123,1.737,1.737,0,0,0-.182-.238c-.041-.042-.093-.071-.138-.109a1.72,1.72,0,0,0-.214-.168l-.013,0-.011-.008L65.75,94.251V80.285l12.758-6.964L93.352,83.773V97.554a1.733,1.733,0,0,0,.1.547l-13.074,8.707Zm31.1-1.054V91.951L122.6,85.878V96.516Zm0-53.079V38.872L122.6,32.8V43.437Z" transform="translate(-1.897 -0.248)" fill="#fff"/>
</svg>
